<svg width="139" height="20" viewBox="0 0 139 20" fill="none" xmlns="http://www.w3.org/2000/svg">
<path fill-rule="evenodd" clip-rule="evenodd" d="M12.9106 15.791V20H0.910645V0H6.56615V15.791H12.9106ZM20.8542 16.6525L19.7534 20H13.9106L21.2211 0H27.6284L34.9106 20H29.0397L27.9389 16.6525H20.8542ZM25.9106 12H21.9106L23.9237 6L25.9106 12ZM49.6886 19.007C48.3838 19.669 46.9112 20 45.2708 20C43.6305 20 42.1812 19.6737 40.923 19.021C39.6648 18.3683 38.6815 17.3893 37.9731 16.0839C37.2648 14.7786 36.9106 13.1841 36.9106 11.3007V0H42.3909V11.3007C42.3909 12.4196 42.6379 13.2821 43.1319 13.8881C43.6258 14.4942 44.3761 14.7972 45.3827 14.7972C46.3893 14.7972 47.1489 14.4895 47.6615 13.8741C48.1741 13.2587 48.4304 12.4009 48.4304 11.3007V0H53.9106V11.3007C53.9106 13.1655 53.5332 14.7506 52.7782 16.0559C52.0233 17.3613 50.9934 18.345 49.6886 19.007ZM63.3327 20V8.82603L70.4886 20H75.9106V0H70.4886V11.3154L63.3327 0H57.9106V20H63.3327ZM93.1199 18.7006C91.5876 19.5669 89.7876 20 87.7199 20H79.9106V0H87.7199C89.7876 0 91.5922 0.419021 93.1337 1.25706C94.6753 2.0951 95.8568 3.26742 96.6783 4.77401C97.4999 6.2806 97.9106 8.00377 97.9106 9.9435C97.9106 11.8832 97.4953 13.6111 96.6645 15.1271C95.8337 16.6431 94.6522 17.8343 93.1199 18.7006ZM87.7571 15H85.9106V5H87.7571C89.3555 5 90.6141 5.43981 91.5327 6.31944C92.4513 7.19907 92.9106 8.42593 92.9106 10C92.9106 11.5926 92.4513 12.8241 91.5327 13.6944C90.6141 14.5648 89.3555 15 87.7571 15ZM107.373 12.6271V20H101.911V0H110.535C112.106 0 113.442 0.277778 114.541 0.833333C115.641 1.38889 116.469 2.15631 117.023 3.13559C117.578 4.11488 117.855 5.21657 117.855 6.44068C117.855 7.83428 117.476 9.04426 116.718 10.0706C115.96 11.097 114.87 11.8173 113.446 12.2316L117.911 20H111.893L107.928 12.6271H107.373ZM109.62 9H106.911V5H109.62C110.384 5 110.956 5.17897 111.338 5.53691C111.72 5.89485 111.911 6.38702 111.911 7.01342C111.911 8.33781 111.147 9 109.62 9ZM131.727 13.6441V20H126.095V13.6441L118.911 0H125.376L128.968 7.62712L132.531 0H138.911L131.727 13.6441Z" fill="white"/>
</svg>
